<?xml version="1.0" standalone="no"?><!DOCTYPE svg PUBLIC "-//W3C//DTD SVG 1.1//EN" "http://www.w3.org/Graphics/SVG/1.1/DTD/svg11.dtd"><svg t="1578553080288" class="icon" viewBox="0 0 1024 1024" version="1.1" xmlns="http://www.w3.org/2000/svg" p-id="4669" xmlns:xlink="http://www.w3.org/1999/xlink" width="200" height="200"><defs><style type="text/css"></style></defs><path d="M535.273 609.047a69.841 69.841 0 0 1 0 131.724v120.32a23.273 23.273 0 0 1-46.546 0V740.77a69.841 69.841 0 0 1 0-131.724V162.91a23.273 23.273 0 0 1 46.546 0v446.138zM768 283.23a69.841 69.841 0 0 1 0 131.724V861.09a23.273 23.273 0 0 1-46.545 0V414.953a69.841 69.841 0 0 1 0-131.724V162.91a23.273 23.273 0 0 1 46.545 0v120.32z m-465.455 0a69.841 69.841 0 0 1 0 131.724V861.09a23.273 23.273 0 0 1-46.545 0V414.953a69.841 69.841 0 0 1 0-131.724V162.91a23.273 23.273 0 0 1 46.545 0v120.32z m-23.272 89.135a23.273 23.273 0 1 0 0-46.546 23.273 23.273 0 0 0 0 46.546z m465.454 0a23.273 23.273 0 1 0 0-46.546 23.273 23.273 0 0 0 0 46.546zM512 698.182a23.273 23.273 0 1 0 0-46.546 23.273 23.273 0 0 0 0 46.546z" fill="#21A3DD" p-id="4670"></path></svg>